<svg xmlns="http://www.w3.org/2000/svg" viewBox="0 0 256 256">
  <g id="b52e2131-4f96-434a-96f6-2bb6265a31e7" data-name="Circle">
    <circle cx="128" cy="128" r="120" style="fill: #211f20"/>
  </g>
  <g id="bca3a1a7-d103-4bb5-937d-b68643b8999c" data-name="Sun">
    <circle cx="128" cy="128" r="85" style="fill: #eb1c24"/>
  </g>
  <g id="ad8b589c-a354-4a71-9ee7-87f7c1261b82" data-name="Mountains">
    <polygon points="27.087 132.553 29.099 130.466 42.143 123.161 49.596 121.224 54.59 113.547 61.82 124.13 64.13 133.596 70.988 139.261 80.155 138.366 87.385 153.944 92.453 150.143 100.503 170.565 110.714 177.646 117.832 185.845 125.248 181.075 131.957 181.969 141.72 179.882 148.429 177.199 154.54 170.64 163.634 178.019 183.609 195.832 154.689 216.925 93.124 211.335 59.286 190.019 24.478 133.932 27.087 132.553" style="fill: #211f20"/>
  </g>
  <g id="b2e479a7-c775-4999-a07d-395b908041cc" data-name="Wolf">
    <path d="M232.3354,182.77019l7.36025,2.70186c-.1118-4.60248-6.205-9.13044-6.48447-9.67081s1.56522.46584,1.56522.46584a10.86122,10.86122,0,0,0-2.3292-3.07453c-1.472-1.28572-12.59627-6-7.38354-3.70808s-4.54192-4.10869-4.54192-4.10869.60093,1.104,1.146.2795-4.01087-4.2764-4.01087-4.2764c-1.663-1.48136-1.04813-1.63509-1.04813-1.63509s1.22981.81056,1.132.3354-2.222-2.68323-3.75233-4.14363-.007-.81755-.007-.81755c-16.23913-17.55279-19.39752-14.98136-19.39752-14.98136a58.72123,58.72123,0,0,0-15.78261-2.8323s-3.4472-1.58385-21.67081-6.39131a65.41624,65.41624,0,0,1-29.65527-17.83229c6.59627,7.60248,12.52173,4.6118,12.52173,4.6118-8.04969-11.99069-10.59316-12.9969-10.59316-12.9969l-4.83541-7.35093-2.57143-2.06832-2.48757-.67081s-6.93168-8.80435-7.43479-9.2236-1.45341-2.04038-2.01242-2.37578-3.13043,2.85093-3.13043,2.85093l3.59627,9.48447s1.62112,8.25466-9.31677,3.85715l.07453-1.84472-1.00621,1.30435-1.58385-.559-.764,1.30435s2.27329,4.15528,4.54658,6.01863a8.84405,8.84405,0,0,1,2.86957,4.15528l1.54658,5.8323.70807-.764v3.78261l.80125-.18633s-.72671,4.62111-1.19255,5.19875l.1677.26087a19.71837,19.71837,0,0,0-.09317,7.58385,88.55968,88.55968,0,0,0,3.205,12.40994,24.9305,24.9305,0,0,0,5.8323,8.16149,4.84217,4.84217,0,0,0,.89441,2.01243,37.517,37.517,0,0,0,3.59627,4.22981l3.205,2.8882a22.25648,22.25648,0,0,1,1.86336,2.7764c.80124,1.45341,4.882,2.70186,4.882,2.70186s4.21118,14.75776,3.68944,22.13664c0,0-1.63976,7.30435-3.68944,8.795S148.913,176.86335,148.913,176.86335s.559-6.18633-.18633-8.236c0,0-.44721-.63354.48447-2.01242l4.21118,1.49068s13.81056-.32969,20.911-2.33291q.09182-.0259.18212-.05218s.78261,9.80124,13.15528,17.18012l10.24844,6.85714Z" style="fill: #211f20"/>
  </g>
  <g id="f6304fc2-ac6e-4087-9d67-1b3ad0f4dc85" data-name="Text">
    <g>
      <path d="M30.4668,74.11035l1.16308-1.89844L50.4502,76.541,38.041,61.74365l1.16308-1.89892L53.51123,77.26465,52.48584,78.939Z" style="fill: #fff"/>
      <path d="M46.07422,51.77148l1.7124-1.88769L68.83838,58.375l-1.57422,1.73633L48.56885,52.31348l9.58349,17.8457-1.5747,1.73633Zm7.64941,12.65186,7.52783-8.30127,1.45411,1.31836L55.17773,65.7417Z" style="fill: #fff"/>
      <path d="M58.20361,39.76611l1.71582-1.22656L72.30762,55.86523,70.5918,57.0918ZM71.09424,54.31934l3.92041-2.80323A6.26049,6.26049,0,0,0,77.814,47.813a5.455,5.455,0,0,0-1.22656-4.2461L72.94092,38.4668a5.45626,5.45626,0,0,0-3.62158-2.53369,6.25814,6.25814,0,0,0-4.40967,1.45117L60.98975,40.1875l-1.14209-1.59668,3.84912-2.75244a10.65485,10.65485,0,0,1,4.15967-1.939,5.6607,5.6607,0,0,1,3.67089.5A9.06557,9.06557,0,0,1,74.7251,37.335l3.51025,4.90967a8.95893,8.95893,0,0,1,1.73389,3.97363,5.74282,5.74282,0,0,1-.7207,3.63916,10.5651,10.5651,0,0,1-3.17579,3.31543L72.23584,55.916Z" style="fill: #fff"/>
      <path d="M86.124,23.1543l2.00049-.66944,6.75586,20.19922-2.00049.66895ZM91.794,36.87354,98.16846,19.126l2.584-.86426-7.60889,19.875Zm4.14843-6.53077.46094-2.45556,11.95215,10.29-2.38916.79882Z" style="fill: #fff"/>
      <path d="M112.31445,37.11523a6.08869,6.08869,0,0,1-2.84863-2.36718,9.41056,9.41056,0,0,1-1.36426-4.11768l-.69775-5.99512a9.41761,9.41761,0,0,1,.38183-4.3208,6.08932,6.08932,0,0,1,2.2295-2.95849,9.34812,9.34812,0,0,1,8.0459-.936,6.082,6.082,0,0,1,2.84912,2.36719,9.41673,9.41673,0,0,1,1.36425,4.11768l.69727,5.99462a9.40645,9.40645,0,0,1-.38184,4.32129,6.08485,6.08485,0,0,1-2.229,2.958,9.34687,9.34687,0,0,1-8.04639.93652Zm6.71241-2.51367a4.43168,4.43168,0,0,0,1.59765-2.17724,7.10432,7.10432,0,0,0,.26416-3.1792l-.72168-6.19824a7.1083,7.1083,0,0,0-.98681-3.0337,4.43166,4.43166,0,0,0-2.05469-1.75195,6.54827,6.54827,0,0,0-5.77686.67236,4.43172,4.43172,0,0,0-1.59717,2.17676,7.099,7.099,0,0,0-.26416,3.1792l.7212,6.19873a7.10176,7.10176,0,0,0,.9873,3.03369,4.43338,4.43338,0,0,0,2.05469,1.75147,6.54522,6.54522,0,0,0,5.77637-.67188Z" style="fill: #fff"/>
      <path d="M127.4126,15.22559l2.21728.20654L134.044,34.23242l7.80859-17.66308,2.2168.20605-9.32422,20.52344L132.79,37.1167Z" style="fill: #fff"/>
      <path d="M154.24219,19.22754l2.46191.66016,2.06836,22.60546-2.26367-.60693-1.6084-20.19238L143.40723,38.37354l-2.26368-.60694ZM146.48535,31.813l10.82324,2.90185-.50781,1.896L145.97656,33.709Zm8.333-15.13037,4.97559-2.38184,1.03808,1.90088-5.03125,2.07861Z" style="fill: #fff"/>
      <path d="M163.56348,44.69922a11.00609,11.00609,0,0,1-1.96485-1.876,10.84031,10.84031,0,0,1-1.41308-2.2666l1.85644-.98144a9.17335,9.17335,0,0,0,1.93653,2.83056,10.15424,10.15424,0,0,0,2.93164,2,7.15277,7.15277,0,0,0,4.30468.79444,3.53779,3.53779,0,0,0,2.64063-2.13624l.00683-.01318a2.82328,2.82328,0,0,0,.22461-2.042,3.98668,3.98668,0,0,0-1.06836-1.70361,18.39641,18.39641,0,0,0-2.13085-1.727.51993.51993,0,0,0-.07715-.05958,1.06076,1.06076,0,0,1-.09082-.0664l-.34864-.25781a27.07519,27.07519,0,0,1-2.88574-2.30957,5.15794,5.15794,0,0,1-1.42383-2.38428,4.57627,4.57627,0,0,1,.42871-3.18213l.00684-.01367a6.18374,6.18374,0,0,1,2.21973-2.69336,5.5699,5.5699,0,0,1,3.24121-.85059,10.30483,10.30483,0,0,1,4.01758,1.04932,10.17187,10.17187,0,0,1,1.92382,1.16308,11.18194,11.18194,0,0,1,1.6709,1.58692,13.0805,13.0805,0,0,1,1.416,2.01758l-1.8252.98047a11.53744,11.53744,0,0,0-1.84179-2.44043,7.6259,7.6259,0,0,0-2.167-1.52588,6.52954,6.52954,0,0,0-4.13086-.69825,3.666,3.666,0,0,0-2.5996,2.20411l-.00586.01318a2.51719,2.51719,0,0,0-.14454,2.02295,4.43892,4.43892,0,0,0,1.18262,1.68408,28.31622,28.31622,0,0,0,2.34473,1.85791c.03125.0249.06543.05127.10058.07861q.05421.041.11426.085c.04883.03369.09473.06787.1377.104.042.03564.08886.07031.13769.104a20.26262,20.26262,0,0,1,2.63867,2.25147,5.23542,5.23542,0,0,1,1.32325,2.42676,4.74815,4.74815,0,0,1-.46387,3.11767l-.0127.02686a5.8582,5.8582,0,0,1-2.23535,2.63818,5.74849,5.74849,0,0,1-3.31152.79346,11.03259,11.03259,0,0,1-4.14063-1.11377A14.03369,14.03369,0,0,1,163.56348,44.69922Z" style="fill: #fff"/>
      <path d="M195.95605,40.58643,177.291,49.7373l9.0166,5.96436-1.00293,1.51514-11.04395-7.30664.85645-1.29493,18.72558-9.10986-8.6123-5.69824,1.00195-1.51465,10.58008,6.999Z" style="fill: #fff"/>
      <path d="M190.13965,60.47266a6.08808,6.08808,0,0,1,.01172-3.70411,9.417,9.417,0,0,1,2.30664-3.67382l4.17871-4.3545a9.418,9.418,0,0,1,3.57617-2.45654,6.08845,6.08845,0,0,1,3.7002-.16455,9.34906,9.34906,0,0,1,5.84472,5.60889,6.088,6.088,0,0,1-.01172,3.7041,9.41881,9.41881,0,0,1-2.30761,3.67334L203.26074,63.46a9.41419,9.41419,0,0,1-3.57617,2.45654,6.08865,6.08865,0,0,1-3.70019.16455,9.34671,9.34671,0,0,1-5.84473-5.60839Zm6.21191,3.57568a4.433,4.433,0,0,0,2.69629-.1543,7.104,7.104,0,0,0,2.61914-1.82031l4.32129-4.50244a7.11661,7.11661,0,0,0,1.71094-2.69287,4.42905,4.42905,0,0,0,.042-2.69971,6.54383,6.54383,0,0,0-4.19531-4.02637,4.42886,4.42886,0,0,0-2.69629.15381,7.1129,7.1129,0,0,0-2.62012,1.82031l-4.32031,4.50293a7.115,7.115,0,0,0-1.71094,2.69239,4.43654,4.43654,0,0,0-.043,2.6997,6.55045,6.55045,0,0,0,4.19629,4.02686Z" style="fill: #fff"/>
      <path d="M201.99512,74.28223a11.00086,11.00086,0,0,1-.709-2.623,10.85089,10.85089,0,0,1-.03418-2.6709l2.09668.12256a9.18406,9.18406,0,0,0,.18946,3.42432,10.14631,10.14631,0,0,0,1.47168,3.23,7.15048,7.15048,0,0,0,3.26953,2.90966,3.54121,3.54121,0,0,0,3.36621-.459l.01172-.00781a2.82407,2.82407,0,0,0,1.251-1.62988,3.9979,3.9979,0,0,0-.03125-2.01124,18.47452,18.47452,0,0,0-.92773-2.58056.62392.62392,0,0,0-.03516-.09131.81623.81623,0,0,1-.043-.10352l-.165-.40136a27.16727,27.16727,0,0,1-1.27246-3.47071,5.16938,5.16938,0,0,1,.01856-2.77734,4.57533,4.57533,0,0,1,2.01562-2.499l.01172-.0083a6.18238,6.18238,0,0,1,3.29492-1.15332,5.568,5.568,0,0,1,3.21289.95214,11.14936,11.14936,0,0,1,3.93555,4.96973,11.17214,11.17214,0,0,1,.60645,2.22314,13.11639,13.11639,0,0,1,.166,2.45948L221.627,71.979a11.58039,11.58039,0,0,0-.31152-3.0415,7.64806,7.64806,0,0,0-1.06348-2.42773,6.52264,6.52264,0,0,0-3.1709-2.7378,3.66828,3.66828,0,0,0-3.36523.53809l-.01172.0083a2.51959,2.51959,0,0,0-1.17187,1.65576,4.43338,4.43338,0,0,0,.13867,2.05322,28.44774,28.44774,0,0,0,1.043,2.80371c.01367.0376.02929.07764.0459.11963.01562.042.03418.08545.05273.13184a1.61206,1.61206,0,0,1,.06445.16016c.01758.05224.03907.106.06348.16015a20.31564,20.31564,0,0,1,1.09082,3.293,5.23987,5.23987,0,0,1-.126,2.76123,4.7478,4.7478,0,0,1-2.01172,2.42627l-.02441.01611a5.8717,5.8717,0,0,1-3.2793,1.09864,5.74769,5.74769,0,0,1-3.24316-1.03711,11.03061,11.03061,0,0,1-2.96484-3.09815A14.00294,14.00294,0,0,1,201.99512,74.28223Z" style="fill: #fff"/>
    </g>
    <g>
      <path d="M84.1123,201.21289l1.69581,1.25586L73.14063,219.58984l-1.69581-1.2539Zm-5.3496,9.81836,5.47558,4.05078a4.18093,4.18093,0,0,0,2.10645.84766,3.84561,3.84561,0,0,0,2.13281-.40821,5.19013,5.19013,0,0,0,1.82959-1.59765,5.264,5.264,0,0,0,1.00635-2.23535,3.83781,3.83781,0,0,0-.2295-2.165,4.18571,4.18571,0,0,0-1.42675-1.76563l-5.47559-4.05176,1.16748-1.57714,5.39307,3.99023a6.73158,6.73158,0,0,1,2.21338,2.64844,5.64757,5.64757,0,0,1,.44384,3.17969,7.711,7.711,0,0,1-4.064,5.49414,5.66387,5.66387,0,0,1-3.167.499,6.75915,6.75915,0,0,1-3.18018-1.34082l-5.39307-3.99023Z" style="fill: #fff"/>
      <path d="M97.63867,210.74121l1.94287.82129-8.30127,19.61523-1.94238-.82226Zm-6.20019,18.37207,11.26416,4.76758-.76514,1.80664-11.26416-4.7666Zm3.73925-8.83594L104.958,224.416l-.76465,1.80859L94.4126,222.085Zm3.79688-8.9707,11.26416,4.7666-.76514,1.80762-11.26416-4.76758Zm4.95508-.73437,5.25683-1.67188.76514,2.02539-5.27,1.36426Z" style="fill: #fff"/>
      <path d="M112.27881,216.64258l2.09326.25781-2.60547,21.13867-2.09375-.25781Zm-.79443,14.82324,13.39892-13.27051,2.7041.334-15.4292,14.6582Zm6.55761-4.10644,1.47364-2.01758,6.353,14.43554-2.50049-.30859Z" style="fill: #fff"/>
      <path d="M134.96,238.63477a10.75863,10.75863,0,0,1-5.08887-1.6377l1.02442-1.834a9.15935,9.15935,0,0,0,3.16406,1.32226,10.146,10.146,0,0,0,3.54883.083,7.14592,7.14592,0,0,0,4.04394-1.67481,3.53909,3.53909,0,0,0,1.05371-3.22949l-.00195-.01367a2.82,2.82,0,0,0-.92187-1.83594,3.98247,3.98247,0,0,0-1.82325-.84863,18.39676,18.39676,0,0,0-2.72753-.29.51031.51031,0,0,0-.09668-.00781c-.03516,0-.07227-.00195-.11231-.00586l-.43262-.02734a27.23993,27.23993,0,0,1-3.67871-.36719,5.17131,5.17131,0,0,1-2.49121-1.22656,4.57589,4.57589,0,0,1-1.37109-2.9043l-.002-.01367a6.18235,6.18235,0,0,1,.39746-3.46875,5.57506,5.57506,0,0,1,2.25683-2.47657,10.2865,10.2865,0,0,1,3.94238-1.30468,10.04209,10.04209,0,0,1,2.2461-.07032,11.17437,11.17437,0,0,1,2.26562.42188,13.10085,13.10085,0,0,1,2.28516.92285l-.99707,1.81543a11.56377,11.56377,0,0,0-2.87305-1.0459,7.61181,7.61181,0,0,0-2.64843-.10058,6.52867,6.52867,0,0,0-3.84668,1.66015,3.67013,3.67013,0,0,0-.98243,3.26367l.00293.01465a2.51889,2.51889,0,0,0,.9795,1.77637,4.44247,4.44247,0,0,0,1.9082.76953,28.31643,28.31643,0,0,0,2.97754.2832c.04.00391.083.00782.12793.01172.04492.00293.09179.00586.1416.00879a1.38128,1.38128,0,0,1,.17187.0127c.05567.00586.11329.01074.17188.01172a20.32692,20.32692,0,0,1,3.43945.4541,5.241,5.241,0,0,1,2.43067,1.3164,4.75069,4.75069,0,0,1,1.30664,2.86817l.0039.0293a5.87062,5.87062,0,0,1-.44043,3.42968,5.75848,5.75848,0,0,1-2.34668,2.46778,11.05116,11.05116,0,0,1-4.08105,1.31738A13.94977,13.94977,0,0,1,134.96,238.63477Z" style="fill: #fff"/>
      <path d="M144.82031,215.3623l1.98145-.72265,7.2959,20.01074-1.98145.72266Zm1.36231-.49707,11.49218-4.18945.67188,1.84375L146.85547,216.71Zm3.126-3.91406,2.70606-4.80664,1.9414.96094-2.92675,4.58984Zm.21094,13.06641,9.97754-3.6377.67285,1.84473-9.97851,3.63672Zm3.28613,9.01367,11.49219-4.18945.67188,1.84472L153.47852,234.876Z" style="fill: #fff"/>
      <path d="M177.8916,210.66406l1.65625,2.66114a10.48092,10.48092,0,0,1,1.6416,4.20605,5.57933,5.57933,0,0,1-.707,3.5625,8.78592,8.78592,0,0,1-3.05566,2.93652,9.3807,9.3807,0,0,1-4.00488,1.50782,5.45587,5.45587,0,0,1-3.45215-.794,9.24483,9.24483,0,0,1-2.91114-3.09766l-3.31933-5.33593a10.43582,10.43582,0,0,1-1.6377-4.19922,5.582,5.582,0,0,1,.71192-3.55664,8.76689,8.76689,0,0,1,3.05566-2.93555,8.25779,8.25779,0,0,1,3.39356-1.2832,6.00383,6.00383,0,0,1,3.1875.49219,9.37557,9.37557,0,0,1,3.01757,2.27148l-1.94043,1.207a7.44362,7.44362,0,0,0-2.18652-1.50391,4.36947,4.36947,0,0,0-2.19629-.34179,5.34231,5.34231,0,0,0-2.23926.82422,6.01717,6.01717,0,0,0-2.17285,2.13672,4.16087,4.16087,0,0,0-.459,2.63183,8.20293,8.20293,0,0,0,1.25683,3.14356l3.31934,5.33593a6.97457,6.97457,0,0,0,2.13965,2.30078,3.98574,3.98574,0,0,0,2.50683.60547,6.64769,6.64769,0,0,0,2.89356-1.07617,6.03455,6.03455,0,0,0,2.14844-2.07812,3.94653,3.94653,0,0,0,.43847-2.56739,8.47126,8.47126,0,0,0-1.2959-3.17871l-.64257-1.0332-4.37793,2.72461-1.03711-1.667Z" style="fill: #fff"/>
    </g>
  </g>
</svg>
