<?xml version="1.0" encoding="utf-8"?>
<!-- Generator: Adobe Illustrator 24.1.2, SVG Export Plug-In . SVG Version: 6.00 Build 0)  -->
<svg version="1.1" id="Layer_1" xmlns="http://www.w3.org/2000/svg" xmlns:xlink="http://www.w3.org/1999/xlink" x="0px" y="0px"
	 viewBox="0 0 128 128" style="enable-background:new 0 0 128 128;" xml:space="preserve">
<style type="text/css">
	.st0{fill:#F7931E;}
</style>
<path class="st0" d="M13,79c0,0,0,0.1,0,0.3c0.2,2.3,2.9,18.3,40,12.7c40-6,65.9-25.5,62-36c-3-8-3-15-30-21c0,0,12,3,15,18
	c0,0-8-16-27-19l-13,1c0,0,24,6,27,28c0,0-12-22-35-25c0,0-10,3-16,7c0,0,29,2,33,24c0,0-14-20-39-20c0,0-10,8-13,14c0,0,22-6,34,17
	c0,0-11-17-36-14c0,0-4,6-2,9s17,18,49,9s26-10,26-10S72,89,46,90S13,79,13,79"/>
</svg>
